<?xml version="1.0" encoding="iso-8859-1"?>
<!-- Uploaded to: SVG Repo, www.svgrepo.com, Generator: SVG Repo Mixer Tools -->
<svg height="800px" width="800px" version="1.1" id="Layer_1" xmlns="http://www.w3.org/2000/svg" xmlns:xlink="http://www.w3.org/1999/xlink" 
	 viewBox="0 0 390.206 390.206" xml:space="preserve">
<polygon style="fill:#56ACE0;" points="181.01,131.777 242.23,102.492 229.818,157.829 208.097,168.108 "/>
<path style="fill:#194F82;" d="M379.345,364.827H10.861C4.913,364.827,0,369.676,0,375.688c0,5.947,4.848,10.861,10.861,10.861
	h368.485c5.947,0,10.861-4.848,10.861-10.861C390.206,369.74,385.358,364.827,379.345,364.827z"/>
<polygon style="fill:#FFFFFF;" points="66.133,104.69 27.604,84.068 42.796,116.068 "/>
<path style="fill:#FFC10D;" d="M270.998,84.068c1.616-10.861-8.145-16.808-16.291-12.994l-97.034,46.093
	c-7.046,4.331-8.663,11.895-4.331,17.325l12.994,17.325l-20.04,9.762c-15.709,9.244-63.935,16.226-93.22-24.954L268.8,34.225
	c42.796-20.04,83.459,6.529,93.22,24.954l-95.935,45.511L270.998,84.068z"/>
<path style="fill:#194F82;" d="M389.107,59.696c-27.669-56.372-91.604-66.651-130.069-46.61L92.703,92.213L33.099,60.795
	c-3.232-1.616-7.046-1.616-10.279,0L7.046,67.841c-5.947,2.715-8.145,9.762-5.43,15.709l25.471,53.139l0,0
	c23.855,55.855,95.935,66.651,129.552,46.093l24.372-11.378l14.093,18.941c3.232,4.331,9.244,5.947,14.61,3.814l35.749-16.808
	c3.232-1.616,5.43-4.331,6.529-8.145l7.564-34.715l124.121-59.087C389.689,72.173,391.305,64.027,389.107,59.696z M181.01,131.777
	l61.22-29.285l-12.477,55.273l-21.657,10.279L181.01,131.777z M157.737,117.167c-7.046,4.331-8.663,11.895-4.331,17.325
	l12.994,17.325l-20.04,9.762c-15.709,9.244-63.935,16.291-93.22-24.954L268.8,34.225c42.796-20.04,83.459,6.529,93.22,24.954
	l-95.935,45.511l4.848-20.622c1.616-10.861-8.145-16.808-16.291-12.994L157.737,117.167z M66.133,104.69l-23.855,11.378l-14.61-32
	L66.133,104.69z"/>
</svg>